<!-- highstreet technologies GmbH colour scheme 
	Grey	#565656
	LBlue #36A9E1
	DBlue #246DA2
	Green #003F2C / #006C4B
	Yellw #C8D400
	Red 	#D81036
-->

<svg xmlns="http://www.w3.org/2000/svg" viewBox="0 0 512 512">

<g transform="translate(0.000000,512.000000) scale(0.100000,-0.100000)"
>

<path fill="#565656" d="M2440 5114 c-14 -2 -59 -9 -100 -15 -103 -15 -263 -69 -373 -126
-227 -117 -434 -328 -552 -562 -45 -91 -98 -250 -116 -351 -21 -118 -17 -326
10 -445 94 -432 375 -1147 830 -2113 144 -306 414 -852 421 -852 4 0 79 147
167 328 652 1327 1039 2291 1104 2751 36 258 -47 580 -214 831 -63 95 -250
282 -342 342 -143 92 -310 162 -469 194 -71 14 -319 27 -366 18z m252 -982
c60 -26 126 -93 158 -157 35 -72 35 -198 0 -270 -31 -64 -92 -124 -155 -156
-41 -20 -65 -24 -135 -24 -100 0 -159 23 -225 90 -166 165 -102 448 119 527
66 24 172 20 238 -10z"/>

<path fill="#36A9E1" d="M 616 2395 C 632 2510 562 1951 480 1285 L 344 198 C 314 18 374 0 488 -6 L 2560 0 L 4647 0 C 4718 12 4832 18 4808 198 L 4510 2387 C 4491 2547 4363 2557 4254 2558 L 4028 2555 L 3975 2398 L 3922 2240 L 4139 2240 L 4307 420 L 850 420 L 985 2239 L 1196 2240 L 1142 2400 L 1088 2560 L 844 2559 C 740 2559 630 2544 616 2397 Z"/>
</g>
</svg>
