<!-- highstreet technologies GmbH colour scheme 
	Grey	#565656
	LBlue #36A9E1
	DBlue #246DA2
	Green #003F2C / #006C4B
	Yellw #C8D400
	Red 	#D81036
-->

<svg xmlns="http://www.w3.org/2000/svg" xmlns:xlink="http://www.w3.org/1999/xlink" viewBox="0 0 150 150" >

<g stroke="none" stroke-width="1" fill="none" transform="scale(10,10)">

<path fill="#565656" d="M 5 0 L 5 10 C 3 10 2 8 2 7 L 2 5.25 L 1.5 5.25 L 1.5 14 C 1 14 0 14 0 12.5 L 0 3 L 1.5 3 L 1.5 4.75 L 2 4.75 L 2 3 C 2 2 3 0 5 0 Z" ></path>

<path fill="#006C4B" d="M 6 5 C 5.6 5 5.6 4.71 6 4.6 L 11 3 C 11.2 2.955 11.2 2.955 11 3.4 L 10.5 4.6 C 10.329 5 10.329 5 10.5 5 L 13 5 C 13.4 5 13.41 5.241 13 5.4 L 8 7 C 7.8 7.034 7.793 7.032 8 6.6 L 8.5 5.4 C 8.685 5.012 8.685 5.012 8.5 5 L 6 5 Z" ></path>

</g>
</svg> 