<!-- highstreet technologies GmbH colour scheme 
	Grey	#565656
	LBlue #36A9E1
	DBlue #246DA2
	Green #003F2C / #006C4B
	Yellw #C8D400
	Red 	#D81036
-->

<svg version="1.1" viewBox="13 0 76 76" xml:space="preserve" xmlns="http://www.w3.org/2000/svg" xmlns:xlink="http://www.w3.org/1999/xlink">

<g>
<path fill="#565656" d="M52.7,19.1H19.9v53.2h32.8V19.1z M34.7,62.2h-3.4v-6.2h3.4V62.2z M34.7,49.7h-3.4v-6.2h3.4V49.7z M34.7,37.3h-3.4v-6.2h3.4   V37.3z M45,62.2h-3.4v-6.2H45V62.2z M45,49.7h-3.4v-6.2H45V49.7z M45,37.3h-3.4v-6.2H45V37.3z"/>

<path fill="#565656" d="M75.2,65.6V40.9l-19.7,0v31.4h13C72.2,72.3,75.2,69.3,75.2,65.6z M67.6,62.3H61V59h6.6V62.3z M67.6,54H61v-3.4h6.6V54z"/>
</g>

<g transform="translate(20,-33) scale(0.03,0.03)">
<!--path fill="#565656" d="M 1077 1826 C 1028 1808 1013 1794 989 1749 C 968 1706 965 1665 980 1624 L 745 859 L 512 144 C 491 54 520 53 525 53 L 708 50 L 745 178 L 782 290 L 1130 290 L 1478 290 L 1520 166 L 1561 42 L 1729 42 C 1746 43 1762 43 1741 132 L 1516 858 C 1302 1499 1271 1601 1280 1624 C 1296 1667 1292 1712 1267 1754 C 1229 1822 1149 1852 1077 1826 Z M 1195 1144 C 1228 1042 1256 952 1258 944 C 1261 932 1239 930 1130 930 C 1021 930 999 932 1002 944 C 1011 984 1126 1329 1130 1329 C 1133 1329 1162 1246 1195 1144 Z M 1371 615 C 1390 557 1404 508 1402 505 C 1395 499 865 499 858 505 C 856 508 870 557 889 615 L 925 720 L 1130 720 L 1335 720 L 1371 615 Z"/!-->

<!--path fill="#006C4B" d="M471 2219 c-64 -80 -133 -212 -161 -309 -31 -107 -38 -289 -15 -401
29 -146 119 -324 204 -404 l31 -29 70 69 c39 38 70 73 70 78 0 5 -16 28 -36
50 -51 60 -112 189 -130 277 -20 94 -14 219 16 315 28 89 47 126 106 204 l47
63 -75 75 -75 75 -52 -63z"/!-->

<path fill="#006C4B" d="M1660 2205 l-73 -73 48 -64 c115 -152 158 -340 120 -523 -17 -83 -79
-214 -129 -272 -20 -22 -36 -45 -36 -50 0 -5 31 -40 70 -78 l70 -69 31 29 c46
43 122 163 157 247 48 116 65 221 59 362 -8 186 -62 337 -171 482 -70 94 -62
93 -146 9z"/>

<!--path fill="#006C4B" d="M712 2007 c-75 -93 -112 -203 -112 -332 0 -129 44 -252 120 -337 l35
-39 73 74 74 74 -31 44 c-43 58 -65 138 -58 209 5 64 37 143 69 178 l22 23
-74 74 c-41 41 -77 75 -80 74 -3 0 -20 -19 -38 -42z"/!-->

<path fill="#006C4B" d="M1430 1975 l-74 -74 22 -23 c32 -35 64 -114 69 -178 7 -71 -15 -151
-58 -209 l-31 -44 74 -74 73 -74 37 41 c75 84 118 205 118 335 0 96 -20 178
-61 254 -25 47 -81 121 -92 121 -1 0 -36 -34 -77 -75z"/>

</g>
</svg>